<svg width="604" height="269" viewBox="0 0 604 269" fill="none" xmlns="http://www.w3.org/2000/svg">
<rect x="0" y="0" width="604" height="269" rx="10" fill="white"/>
<path d="M222.627 109.073C216.957 109.073 212.325 110.65 208.698 113.763C208.388 114.04 207.982 114.183 207.568 114.16C207.154 114.138 206.765 113.953 206.487 113.645C206.232 113.363 206.091 112.996 206.091 112.616V91.6594C206.082 91.2505 205.914 90.8613 205.622 90.5745C205.331 90.2877 204.939 90.126 204.53 90.1239H194.49C194.077 90.1239 193.68 90.2883 193.387 90.581C193.094 90.8737 192.93 91.2707 192.93 91.6847V160.021C192.93 160.435 193.094 160.832 193.387 161.125C193.68 161.418 194.077 161.582 194.49 161.582H204.53C204.944 161.582 205.341 161.418 205.634 161.125C205.926 160.832 206.091 160.435 206.091 160.021V159.473C206.093 159.172 206.182 158.878 206.347 158.626C206.513 158.375 206.747 158.177 207.023 158.055C207.298 157.934 207.603 157.895 207.9 157.943C208.197 157.991 208.474 158.124 208.698 158.326C212.325 161.456 216.957 163.016 222.627 163.016C225.948 163.043 229.236 162.361 232.273 161.016C235.309 159.67 238.023 157.691 240.234 155.212C245.087 150.038 247.708 143.162 247.532 136.07C247.695 128.965 245.076 122.078 240.234 116.876C238.026 114.394 235.313 112.413 232.276 111.067C229.239 109.72 225.949 109.041 222.627 109.073ZM230.338 146.379C229.012 147.703 227.431 148.743 225.69 149.436C223.95 150.13 222.087 150.462 220.214 150.412C218.339 150.476 216.472 150.151 214.729 149.457C212.986 148.763 211.407 147.715 210.09 146.379C208.76 145.013 207.722 143.391 207.037 141.612C206.353 139.832 206.037 137.933 206.108 136.028C206.033 134.121 206.347 132.219 207.032 130.437C207.717 128.656 208.757 127.033 210.09 125.667C211.404 124.328 212.984 123.278 214.727 122.584C216.47 121.89 218.339 121.566 220.214 121.635C222.087 121.581 223.951 121.911 225.692 122.605C227.433 123.298 229.014 124.34 230.338 125.667C231.679 127.029 232.728 128.65 233.42 130.432C234.112 132.213 234.433 134.118 234.362 136.028C234.432 137.936 234.11 139.839 233.418 141.619C232.726 143.399 231.678 145.019 230.338 146.379Z" fill="#296CF0"/>
<path d="M303.468 110.515H293.437C293.232 110.513 293.029 110.551 292.838 110.628C292.648 110.704 292.475 110.817 292.328 110.961C292.182 111.104 292.065 111.275 291.985 111.463C291.904 111.652 291.862 111.854 291.859 112.059V112.633C291.859 113.047 291.695 113.444 291.402 113.737C291.11 114.029 290.713 114.194 290.299 114.194C289.912 114.201 289.537 114.059 289.252 113.797C285.597 110.642 280.923 109.064 275.231 109.064C271.925 109.037 268.652 109.72 265.633 111.068C262.614 112.416 259.92 114.397 257.733 116.877C252.874 122.102 250.441 128.483 250.436 136.019C250.43 143.556 252.862 149.937 257.733 155.162C259.923 157.637 262.618 159.614 265.636 160.96C268.655 162.306 271.926 162.99 275.231 162.966C280.917 162.966 285.591 161.388 289.252 158.233C289.404 158.095 289.581 157.988 289.774 157.919C289.967 157.849 290.172 157.819 290.376 157.829C290.581 157.839 290.782 157.89 290.967 157.978C291.152 158.066 291.318 158.19 291.454 158.343C291.716 158.632 291.86 159.008 291.859 159.397V159.971C291.864 160.386 292.032 160.783 292.327 161.076C292.623 161.368 293.021 161.532 293.437 161.532H303.468C303.882 161.53 304.279 161.365 304.572 161.073C304.866 160.781 305.033 160.385 305.037 159.971V112.059C305.033 111.647 304.865 111.253 304.571 110.964C304.277 110.674 303.881 110.513 303.468 110.515ZM287.835 146.38C286.509 147.703 284.928 148.743 283.188 149.437C281.447 150.13 279.584 150.462 277.711 150.412C275.837 150.471 273.971 150.144 272.229 149.45C270.487 148.756 268.907 147.711 267.587 146.38C266.26 145.012 265.224 143.389 264.541 141.61C263.858 139.831 263.543 137.932 263.614 136.028C263.542 134.122 263.857 132.222 264.54 130.441C265.223 128.661 266.26 127.037 267.587 125.668C268.905 124.333 270.485 123.286 272.227 122.592C273.97 121.898 275.837 121.572 277.711 121.635C279.584 121.581 281.449 121.911 283.19 122.605C284.931 123.298 286.512 124.341 287.835 125.668C289.177 127.029 290.226 128.65 290.918 130.432C291.61 132.214 291.93 134.118 291.859 136.028C291.929 137.936 291.608 139.839 290.916 141.619C290.224 143.399 289.175 145.019 287.835 146.38Z" fill="#296CF0"/>
<path d="M338.848 109.073C333.539 109.073 329.321 110.466 326.193 113.25C325.915 113.5 325.555 113.64 325.181 113.646C324.773 113.629 324.388 113.454 324.106 113.158C323.824 112.862 323.668 112.469 323.671 112.06C323.671 111.648 323.507 111.254 323.216 110.962C322.925 110.671 322.53 110.508 322.118 110.508H312.062C311.856 110.504 311.651 110.542 311.46 110.619C311.269 110.695 311.095 110.809 310.948 110.953C310.801 111.098 310.684 111.27 310.605 111.46C310.525 111.65 310.484 111.854 310.484 112.06V159.98C310.484 160.394 310.649 160.791 310.942 161.084C311.234 161.376 311.631 161.541 312.045 161.541H322.093C322.507 161.541 322.904 161.376 323.197 161.084C323.49 160.791 323.654 160.394 323.654 159.98V133.995C323.654 129.777 324.672 126.616 326.708 124.513C327.775 123.442 329.054 122.606 330.464 122.06C331.873 121.513 333.382 121.268 334.892 121.34C336.234 121.275 337.576 121.481 338.838 121.946C340.099 122.411 341.253 123.126 342.231 124.049C344.071 125.854 344.993 128.455 344.999 131.852V159.98C344.997 160.184 345.037 160.386 345.114 160.575C345.191 160.764 345.304 160.935 345.447 161.08C345.591 161.225 345.761 161.34 345.949 161.419C346.137 161.498 346.339 161.54 346.542 161.541H356.599C357.013 161.541 357.41 161.376 357.703 161.084C357.995 160.791 358.16 160.394 358.16 159.98V130.207C358.16 123.61 356.329 118.438 352.667 114.692C350.882 112.846 348.73 111.392 346.351 110.425C343.971 109.457 341.416 108.997 338.848 109.073Z" fill="#296CF0"/>
<path d="M389.663 136.702C389.439 136.423 389.317 136.074 389.317 135.715C389.317 135.356 389.439 135.008 389.663 134.728L407.296 113.055C407.478 112.825 407.592 112.548 407.625 112.256C407.657 111.964 407.606 111.67 407.479 111.405C407.351 111.141 407.151 110.918 406.903 110.762C406.654 110.606 406.366 110.524 406.073 110.524H394.413C394.175 110.522 393.939 110.575 393.724 110.679C393.509 110.783 393.32 110.935 393.173 111.123L378.89 129.455C378.636 129.783 378.263 129.997 377.852 130.051C377.441 130.105 377.026 129.994 376.696 129.742C376.504 129.598 376.349 129.411 376.244 129.195C376.138 128.98 376.085 128.742 376.089 128.502V91.6594C376.08 91.2505 375.912 90.8613 375.621 90.5745C375.329 90.2877 374.937 90.126 374.528 90.1239H364.48C364.275 90.1239 364.072 90.1646 363.882 90.2437C363.693 90.3227 363.521 90.4386 363.376 90.5845C363.232 90.7305 363.118 90.9036 363.041 91.0939C362.964 91.2842 362.926 91.4878 362.928 91.6931V160.03C362.939 160.434 363.107 160.818 363.397 161.1C363.687 161.382 364.076 161.54 364.48 161.54H374.52C374.934 161.54 375.331 161.375 375.623 161.083C375.916 160.79 376.081 160.393 376.081 159.979V142.811C376.081 142.605 376.121 142.4 376.2 142.21C376.279 142.02 376.394 141.847 376.54 141.701C376.686 141.555 376.859 141.44 377.049 141.361C377.24 141.282 377.444 141.241 377.65 141.241C377.882 141.244 378.111 141.298 378.321 141.399C378.531 141.499 378.716 141.644 378.865 141.824L394.194 160.992C394.347 161.166 394.535 161.307 394.746 161.406C394.956 161.505 395.185 161.559 395.417 161.565H406.663C406.964 161.572 407.261 161.492 407.518 161.334C407.774 161.176 407.979 160.947 408.109 160.675C408.238 160.403 408.286 160.099 408.246 159.801C408.207 159.502 408.082 159.221 407.887 158.992L389.663 136.702Z" fill="#296CF0"/>
<path d="M423.015 90.1245H412.967C412.766 90.1189 412.566 90.1532 412.379 90.2254C412.191 90.2976 412.02 90.4063 411.875 90.5452C411.73 90.6841 411.613 90.8504 411.533 91.0345C411.453 91.2187 411.41 91.4169 411.406 91.6178V160.039C411.415 160.445 411.584 160.83 411.877 161.112C412.169 161.393 412.561 161.547 412.967 161.54H423.015C423.419 161.545 423.809 161.39 424.1 161.109C424.391 160.828 424.559 160.443 424.567 160.039V91.6009C424.554 91.2003 424.384 90.821 424.094 90.5448C423.803 90.2686 423.416 90.1176 423.015 90.1245Z" fill="#296CF0"/>
<path d="M478.503 110.6C478.343 110.547 478.175 110.518 478.006 110.515H467.283C466.955 110.513 466.634 110.614 466.367 110.805C466.101 110.996 465.901 111.267 465.798 111.578L456.231 140.668C456.096 141.061 455.811 141.386 455.438 141.569C455.064 141.753 454.633 141.78 454.24 141.646C454.024 141.575 453.828 141.457 453.663 141.301C453.498 141.145 453.37 140.955 453.286 140.744L441.948 111.511C441.833 111.215 441.631 110.962 441.369 110.784C441.106 110.606 440.796 110.513 440.48 110.515H429.512C429.101 110.515 428.706 110.677 428.414 110.966C428.122 111.255 427.956 111.648 427.951 112.059C427.951 112.268 427.994 112.475 428.078 112.667L447.853 159.304C447.988 159.683 447.988 160.098 447.853 160.477C446.647 163.632 445.061 165.961 443.112 167.42C441.091 168.863 438.677 169.652 436.194 169.681C435.794 169.701 435.417 169.874 435.142 170.165C434.867 170.456 434.715 170.842 434.717 171.242V180.438C434.715 180.838 434.867 181.224 435.142 181.515C435.417 181.806 435.794 181.979 436.194 181.999C442.054 182.049 447.004 180.556 451.042 177.519C455.429 174.195 458.947 168.894 461.596 161.616L479.448 112.599C479.587 112.209 479.565 111.779 479.388 111.405C479.211 111.03 478.893 110.741 478.503 110.6Z" fill="#296CF0"/>
<path d="M492.094 118.876C492.066 118.82 492.048 118.76 492.043 118.698V117.964C492.066 117.704 492.029 117.443 491.934 117.2C491.839 116.957 491.688 116.739 491.495 116.564C491.246 116.379 490.957 116.254 490.651 116.201C491.037 116.167 491.406 116.023 491.714 115.788C491.873 115.647 491.997 115.47 492.074 115.272C492.152 115.074 492.182 114.86 492.161 114.649C492.174 114.347 492.102 114.048 491.952 113.785C491.803 113.523 491.583 113.308 491.318 113.164C490.935 112.97 490.515 112.863 490.086 112.852H487.023V119.07H488.711V116.851H489.386C489.573 116.844 489.76 116.875 489.934 116.944C490.041 116.982 490.138 117.043 490.218 117.124C490.298 117.204 490.36 117.301 490.398 117.408C490.459 117.653 490.49 117.905 490.491 118.158C490.498 118.443 490.535 118.725 490.601 119.002H492.204L492.119 118.876H492.094ZM490.187 115.501C489.935 115.66 489.641 115.739 489.344 115.729H488.736V113.932H489.09C489.417 113.914 489.743 113.96 490.052 114.067C490.2 114.109 490.33 114.2 490.419 114.326C490.508 114.452 490.551 114.605 490.542 114.758C490.551 114.902 490.523 115.046 490.461 115.176C490.399 115.306 490.305 115.418 490.187 115.501Z" fill="#296CF0"/>
<path d="M493.392 111.958H493.435C492.396 110.931 491 110.345 489.54 110.323C488.079 110.301 486.666 110.845 485.597 111.84C485.025 112.356 484.571 112.989 484.266 113.697C483.962 114.405 483.814 115.17 483.834 115.94C483.826 116.671 483.962 117.396 484.235 118.074C484.508 118.752 484.912 119.37 485.423 119.892C485.935 120.414 486.544 120.83 487.217 121.116C487.89 121.402 488.612 121.552 489.343 121.559H489.461C490.932 121.572 492.349 121.002 493.401 119.973C494.462 118.909 495.057 117.467 495.056 115.964C495.054 114.461 494.456 113.02 493.392 111.958ZM492.717 119.247C492.294 119.687 491.785 120.035 491.222 120.27C490.659 120.505 490.054 120.622 489.444 120.614C488.527 120.61 487.632 120.335 486.871 119.824C486.11 119.313 485.516 118.589 485.165 117.742C484.813 116.895 484.72 115.963 484.896 115.063C485.072 114.164 485.509 113.336 486.154 112.684C486.564 112.251 487.055 111.905 487.6 111.663C488.144 111.421 488.731 111.288 489.326 111.273C489.922 111.259 490.515 111.361 491.07 111.576C491.626 111.79 492.134 112.112 492.566 112.523L492.726 112.684C493.161 113.106 493.505 113.613 493.738 114.173C493.972 114.732 494.09 115.334 494.084 115.94C494.091 116.555 493.974 117.165 493.739 117.733C493.504 118.302 493.157 118.817 492.717 119.247Z" fill="#296CF0"/>
<path d="M172.032 131.75C171.908 131.386 171.672 131.07 171.359 130.846C171.046 130.623 170.671 130.502 170.286 130.502C169.847 130.487 169.418 130.634 169.079 130.915C164.709 135.572 153.362 139.985 140.066 139.985C126.77 139.985 115.279 135.496 110.968 130.898C110.829 130.716 110.654 130.564 110.453 130.451C110.21 130.267 109.915 130.164 109.61 130.156C109.402 130.149 109.194 130.184 109 130.259C108.806 130.334 108.629 130.447 108.479 130.592C108.33 130.737 108.211 130.91 108.13 131.102C108.048 131.294 108.007 131.5 108.007 131.708C107.998 131.744 107.998 131.782 108.007 131.818C108.002 131.826 108 131.834 108 131.843C108 131.852 108.002 131.861 108.007 131.868V162.966C108.007 165.825 109.143 168.568 111.165 170.59C113.187 172.612 115.929 173.748 118.789 173.748H147.288C162.271 173.748 174.875 161.886 174.968 146.903C175.004 143.072 174.435 139.259 173.281 135.606L172.032 131.75Z" fill="#296CF0"/>
<path d="M174.969 106.845C175.009 110.677 174.44 114.49 173.282 118.142L172.033 121.998C171.963 122.198 171.86 122.386 171.73 122.554C171.415 122.942 170.961 123.19 170.464 123.244C169.968 123.298 169.47 123.153 169.081 122.841C164.71 118.184 153.363 113.746 140.067 113.746C126.771 113.746 115.28 118.252 110.969 122.85C110.829 123.034 110.654 123.188 110.454 123.305C110.208 123.483 109.914 123.583 109.611 123.592C109.403 123.6 109.196 123.566 109.002 123.492C108.808 123.418 108.63 123.305 108.481 123.161C108.331 123.017 108.212 122.844 108.131 122.653C108.049 122.462 108.008 122.256 108.008 122.048V90.782C108.008 89.3654 108.287 87.9626 108.829 86.654C109.372 85.3453 110.167 84.1563 111.169 83.155C112.171 82.1537 113.36 81.3597 114.67 80.8183C115.979 80.277 117.382 79.9989 118.798 80H147.289C162.272 80 174.876 91.8619 174.969 106.845Z" fill="#296CF0"/>
</svg>
